HIERARCHY
ROOT Hips
{
  OFFSET 13.6774 106.653 -34.4427
  CHANNELS 6 Xposition Yposition Zposition Zrotation Xrotation Yrotation
  JOINT ToSpine
  {
    OFFSET -2.69724 7.43032 -0.144315
    CHANNELS 3 Zrotation Xrotation Yrotation
    JOINT Spine
    {
      OFFSET -0.0310711 10.7595 1.96963
      CHANNELS 3 Zrotation Xrotation Yrotation
      JOINT Spine1
      {
        OFFSET 19.9056 3.91189 0.764692
        CHANNELS 3 Zrotation Xrotation Yrotation
        JOINT Neck
        {
          OFFSET 25.9749 7.03908 -0.130764
          CHANNELS 3 Zrotation Xrotation Yrotation
          JOINT Head
          {
            OFFSET 9.52751 0.295786 -0.907742
            CHANNELS 3 Zrotation Xrotation Yrotation
            End Site
            {
              OFFSET 16.4037 0.713936 2.7358
            }
          }
        }
        JOINT LeftShoulder
        {
          OFFSET 17.7449 4.33886 11.7777
          CHANNELS 3 Zrotation Xrotation Yrotation
          JOINT LeftArm
          {
            OFFSET 0.911315 1.27913 9.80584
            CHANNELS 3 Zrotation Xrotation Yrotation
            JOINT LeftForeArm
            {
              OFFSET 28.6126 1.18197 -3.53199
              CHANNELS 3 Zrotation Xrotation Yrotation
              JOINT LeftHand
              {
                OFFSET 27.5088 0.0218783 0.327423
                CHANNELS 3 Zrotation Xrotation Yrotation
                End Site
                {
                  OFFSET 18.6038 -0.000155887 0.382096
                }
              }
            }
          }
        }
        JOINT RightShoulder
        {
          OFFSET 17.1009 2.89543 -12.2328
          CHANNELS 3 Zrotation Xrotation Yrotation
          JOINT RightArm
          {
            OFFSET 1.4228 0.178766 -10.211
            CHANNELS 3 Zrotation Xrotation Yrotation
            JOINT RightForeArm
            {
              OFFSET 28.733 1.87905 2.64907
              CHANNELS 3 Zrotation Xrotation Yrotation
              JOINT RightHand
              {
                OFFSET 27.4588 0.290562 -0.101845
                CHANNELS 3 Zrotation Xrotation Yrotation
                End Site
                {
                  OFFSET 17.8396 -0.255518 -0.000602873
                }
              }
            }
          }
        }
      }
    }
  }
  JOINT LeftUpLeg
  {
    OFFSET -5.61296 -2.22332 -10.2353
    CHANNELS 3 Zrotation Xrotation Yrotation
    JOINT LeftLeg
    {
      OFFSET 2.56703 -44.7417 -7.93097
      CHANNELS 3 Zrotation Xrotation Yrotation
      JOINT LeftFoot
      {
        OFFSET 3.16933 -46.5642 -3.96578
        CHANNELS 3 Zrotation Xrotation Yrotation
        JOINT LeftToeBase
        {
          OFFSET 0.346054 -6.02161 12.8035
          CHANNELS 3 Zrotation Xrotation Yrotation
          End Site
          {
            OFFSET 0.134235 -1.35082 5.13018
          }
        }
      }
    }
  }
  JOINT RightUpLeg
  {
    OFFSET -5.7928 -1.72406 10.6446
    CHANNELS 3 Zrotation Xrotation Yrotation
    JOINT RightLeg
    {
      OFFSET -2.57161 -44.7178 -7.85259
      CHANNELS 3 Zrotation Xrotation Yrotation
      JOINT RightFoot
      {
        OFFSET -3.10148 -46.5936 -4.03391
        CHANNELS 3 Zrotation Xrotation Yrotation
        JOINT RightToeBase
        {
          OFFSET -0.0828122 -6.13587 12.8035
          CHANNELS 3 Zrotation Xrotation Yrotation
          End Site
          {
            OFFSET -0.131328 -1.35082 5.13018
          }
        }
      }
    }
  }
}
MOTION
Frames: 19
Frame Time: 0.03333333333333333
0.0000 93.1000 0.0000 59.8745 -50.8129 -24.9855 -71.0959 -0.0748 88.0145 77.2337 71.3377 4.5272 3.4118 21.0346 1.9109 -124.6698 30.0461 160.1498 -166.3044 74.4200 -158.7779 0.2384 -14.9533 -21.9978 -58.9036 33.0699 -137.4976 11.1490 -0.6133 -91.5971 -1.3092 0.0178 4.3400 -1.6394 6.9367 27.5952 -126.7463 -33.8835 97.2409 16.6855 -9.7904 62.7074 0.9815 -0.7370 1.0330 -50.6002 4.6302 103.1163 -2.0124 34.0569 -3.0125 1.9929 -12.7395 -1.9454 2.4117 -7.4054 7.3828 -43.9680 -9.0024 81.0767 0.7160 16.5645 12.5343 -0.9407 9.1544 -0.4499 -0.4948 -3.7936 0.1584 
0.0000 93.1000 0.0000 52.8665 -56.0536 -30.9569 -70.9938 -0.3355 88.2030 72.7785 71.1170 8.7477 4.1455 20.2109 2.5281 -123.7075 28.0246 159.2784 -158.4639 71.9166 -162.3016 0.1043 -14.9932 -20.7681 -63.5930 34.9487 -134.4328 10.1527 -0.5668 -89.7137 -1.3334 0.0028 4.5089 -1.2614 6.7416 24.5348 -119.9933 -41.7185 104.2762 18.9313 -9.8362 65.4880 1.1796 -0.8883 1.4306 -50.7210 5.9081 107.1778 -2.7574 32.9034 0.2793 2.2725 -12.8694 -1.8828 1.4259 -6.0304 5.5076 -44.0525 -7.6974 81.4288 1.5795 12.9878 20.6595 0.5566 10.7183 -0.8707 0.8784 -11.6355 -12.6805 
0.0000 93.1000 0.0000 44.0977 -61.0252 -39.9327 -70.8588 -0.3114 88.3429 71.8286 70.3799 9.4929 4.9533 19.1917 3.2705 -121.7657 25.2054 160.9944 -151.7627 68.4968 -167.3869 0.1800 -14.9675 -19.4461 -69.7316 34.8872 -130.6311 7.8827 -0.0889 -87.9100 -1.3800 0.1956 4.3904 -1.2753 6.1689 23.7930 -108.1290 -47.4225 115.8001 19.2092 -7.9643 69.2292 1.3506 -1.1825 1.5337 -50.8559 6.9033 110.1619 -1.9805 33.2224 3.2187 2.3588 -13.2264 -2.0633 1.7440 -7.8167 4.7257 -41.1275 -5.2826 81.6582 0.8512 19.2603 14.5430 -2.3157 5.4911 0.0626 1.3976 -15.7454 -14.2646 
0.0000 93.1000 0.0000 34.0127 -65.5795 -52.1028 -70.9358 0.1108 88.2148 72.7252 69.1664 8.3721 5.7912 18.5685 3.5817 -120.3000 23.2766 164.8051 -147.4515 65.5915 -169.0293 0.7927 -15.4737 -18.5849 -76.5649 33.7588 -125.7064 6.5306 0.0263 -85.2764 -1.7948 0.4678 3.8819 -1.2924 6.2613 21.7201 -95.1507 -50.9907 128.0087 21.6980 -6.6931 73.1810 1.8734 -2.0206 1.4452 -52.0872 7.4203 112.7860 -1.6590 32.9919 7.0205 1.3180 -13.0860 -2.1887 2.8455 -7.9339 7.2374 -39.4104 -4.4926 80.8328 1.2246 28.9295 2.9126 -6.7816 -0.5929 1.3318 1.4893 -15.7419 -15.3272 
0.0000 93.1000 0.0000 20.2782 -69.4006 -68.8327 -70.9135 -0.1039 88.2408 70.8470 68.2355 10.1998 6.2531 18.1005 3.2529 -119.4540 22.4435 169.4692 -145.2001 63.2740 -171.0342 0.3263 -15.7197 -17.5329 -82.7797 32.0589 -118.6721 7.3862 0.1049 -82.9592 -1.4788 0.2628 4.3525 -1.3990 6.0137 20.2495 -81.3972 -51.4613 140.0645 23.8848 -5.6160 77.8150 1.7572 -1.3750 2.1940 -54.2540 6.6194 112.8897 -2.1520 30.9975 12.2995 0.0977 -11.5825 -1.4678 3.8238 -9.5978 8.4972 -39.0625 -4.9846 78.2095 1.3107 39.2263 -4.5955 -10.5580 -2.6241 1.4396 1.4484 -14.6777 -13.5118 
0.0000 93.1000 0.0000 3.5882 -71.6775 -86.7189 -70.9609 -0.0410 88.2051 67.9145 67.1249 12.0551 7.4785 17.6935 2.7119 -119.4299 22.2020 175.1939 -142.8508 61.4952 -170.6495 0.2392 -15.9636 -17.8606 -88.5709 30.4182 -112.7357 9.6101 0.4522 -82.0826 -1.4516 0.2036 4.2144 -1.1081 5.3064 18.5680 -68.3170 -50.0023 149.9773 23.8371 -3.6225 82.2644 2.1905 -1.2755 2.4773 -57.2926 4.9131 113.4101 -3.2609 29.9183 18.1372 -0.8829 -10.1317 -1.1336 4.1212 -11.0705 9.1731 -40.2059 -6.1212 76.0256 1.3574 47.1903 -8.4769 -13.7494 -3.3217 1.6988 0.9454 -13.2302 -11.0561 
0.0000 93.1000 0.0000 -13.5820 -71.7605 -104.9891 -71.0951 0.8436 88.1082 64.4681 65.8366 16.4741 9.5874 17.0028 1.7409 -121.3006 20.9326 178.3557 -143.0231 59.0142 -172.4177 0.5738 -15.5749 -17.4187 -93.6394 28.6253 -106.4925 10.6744 0.7299 -81.1977 -0.5391 -0.0634 5.0341 0.0531 3.9978 19.0478 -59.3524 -45.1666 155.6379 21.9352 -2.2860 87.4859 1.2387 0.7463 4.8345 -58.3283 4.3690 115.3028 -2.1231 31.0301 16.4634 -2.2137 -9.2097 -1.1988 3.5015 -12.9489 11.7246 -41.9392 -6.6414 75.4929 1.0535 48.9869 -9.8266 -15.5005 -3.5611 1.3622 2.1207 -16.1744 -5.6806 
0.0000 93.1000 0.0000 -28.1570 -68.9102 -121.2163 -70.9914 -0.0357 88.0073 60.8283 65.1131 21.1107 11.1707 16.4040 2.9499 -123.1278 21.1854 -175.6874 -142.2063 57.1830 -174.5606 0.0897 -16.2178 -18.3240 -100.0913 26.9151 -98.5428 13.3518 1.2277 -82.7276 -1.2575 0.0656 4.0888 -1.2103 3.7944 20.5971 -54.4044 -39.8073 157.5569 21.9484 0.7619 90.8215 1.9636 -0.8698 2.9075 -58.1588 5.6723 118.9285 -0.3451 32.8718 11.4640 -2.5664 -8.5030 -1.0048 5.4920 -14.2963 12.6909 -44.9428 -6.1231 74.7677 0.2641 45.6269 -7.3473 -12.2959 -2.6140 1.1135 1.7328 -20.9877 -2.5340 
0.0000 93.1000 0.0000 -41.0406 -64.7464 -132.5643 -70.9881 -0.1635 87.8742 58.9453 64.4639 24.0457 12.2354 16.0922 2.5273 -126.4972 19.8758 -173.7515 -139.4496 55.6402 -176.8574 -0.3649 -16.8984 -20.2045 -105.7809 22.9628 -90.3395 13.2016 1.0229 -82.9898 -1.0413 -0.0897 4.0254 -1.2586 3.9154 22.2765 -52.5544 -35.3039 157.2758 19.6122 2.3284 95.5633 1.1270 -0.1974 2.9003 -57.3311 8.7073 121.2097 -0.3840 37.9331 10.5452 -1.6247 -6.6019 -0.7395 5.2848 -14.1561 11.8002 -48.8588 -3.9495 75.9688 1.5424 38.2803 1.0600 -6.5569 -5.7540 0.5360 2.3812 -18.0361 -11.2222 
0.0000 93.1000 0.0000 -51.0704 -59.6891 -143.2162 -70.7751 -0.1138 87.8011 59.9423 64.3760 24.6987 12.7398 15.7775 1.6243 -130.4189 18.5203 -172.6071 -142.7560 53.9362 -178.8538 -0.5274 -17.7415 -22.5623 -111.1177 16.7678 -84.3649 12.0708 1.0966 -83.5505 -0.8771 -0.0177 4.1913 -0.6790 3.7434 25.0398 -50.3739 -30.1439 156.7278 16.6656 2.6005 98.6367 0.6441 0.4863 2.6585 -55.3527 12.9936 122.5194 -1.0767 47.1687 7.9195 -2.0148 -4.1522 -0.8898 5.8492 -15.9459 16.0370 -49.0783 -1.6631 78.0341 1.3470 35.2869 2.1903 -7.2101 -8.3930 0.8513 1.3787 -13.8859 -3.7107 
0.0000 93.1000 0.0000 -58.3778 -53.6216 -150.4814 -70.8815 -0.1444 87.8306 66.1031 65.5063 20.9964 12.0613 16.7250 0.8193 -132.5133 16.8121 -170.8236 -141.6349 52.2630 -178.1566 -1.0063 -18.9191 -25.4499 -114.9322 10.8542 -79.3279 11.3288 1.1277 -84.2763 -0.6417 0.0103 4.3471 -0.8822 3.9304 26.3213 -49.3269 -26.2807 157.7754 14.8008 2.9002 100.7269 -0.0803 0.9826 1.8361 -52.0788 17.6867 121.2226 -3.0659 57.0313 9.0153 -0.3844 0.0452 -0.7092 6.4260 -17.0351 14.8699 -48.9444 1.0535 82.1600 0.9528 35.3273 4.5739 -8.6728 -10.9208 0.8577 1.2946 -10.2066 -5.3927 
0.0000 93.1000 0.0000 -62.1553 -47.9600 -155.6310 -70.8350 -0.1110 87.9975 73.2611 66.2678 15.9036 11.0023 16.7712 0.4896 -134.3217 14.8048 -170.1244 -141.2220 50.4082 -177.8526 -1.1846 -19.1386 -27.4645 -119.9145 6.0763 -73.2744 11.9427 1.1809 -85.1321 -0.9210 0.3025 3.9517 -1.2522 4.6355 28.2958 -49.2306 -22.1777 157.9519 12.1968 1.9783 100.7130 -0.1319 0.4605 1.1879 -48.1382 20.6868 117.0938 -5.2643 65.3415 6.9361 -0.7253 1.0865 -0.5474 5.3248 -13.0861 11.0233 -47.8718 2.0495 83.1681 1.0112 35.2375 6.2956 -9.0990 -12.5836 1.0315 0.3689 -7.2343 -0.5644 
0.0000 93.1000 0.0000 -62.9117 -43.7977 -157.6962 -70.9543 -0.5510 87.7954 76.1733 66.2482 11.8264 9.9792 16.1608 -0.1077 -136.3570 13.0325 -169.8931 -141.3503 48.3807 -178.2321 -1.2521 -19.2280 -29.4371 -123.9632 1.7989 -70.3647 13.3618 1.0566 -84.3086 -1.0289 0.0250 3.4084 -2.2347 5.1752 31.2417 -49.0315 -18.3649 157.8760 10.1022 1.7916 100.7142 -0.1472 0.0177 0.2066 -44.3174 20.6741 111.1308 -7.3054 66.1259 0.4031 -2.5171 -1.7601 -0.2736 5.2427 -13.0449 11.1909 -46.0944 1.9899 84.1731 0.6904 36.2192 9.0714 -7.7945 -11.9575 1.0479 -0.2659 -6.8891 -2.7346 
0.0000 93.1000 0.0000 -65.0358 -40.6495 -161.2744 -71.1473 -0.0972 87.6839 81.1633 66.3693 7.0330 8.0795 16.3082 -0.0925 -138.2130 11.7065 -170.2834 -141.9443 47.3301 -177.8487 -1.5121 -19.2275 -31.2227 -128.0925 -1.3614 -69.3729 14.0283 0.9862 -84.1647 -0.8942 0.0015 3.6892 -1.9716 5.7880 32.2857 -49.1774 -15.3324 157.9279 8.7892 0.8735 100.7587 -0.4443 0.6232 0.5900 -41.0643 19.0070 104.4323 -7.1524 62.3313 -3.1243 -3.5835 -4.5578 -0.4247 5.7289 -14.7621 12.9328 -43.8511 2.0486 87.0394 1.9062 38.3216 9.8705 -7.5756 -11.4724 1.0241 0.4737 -7.1381 -2.3758 
0.0000 93.1000 0.0000 -65.8546 -36.8942 -163.6277 -71.0683 -0.1415 87.6495 84.3138 67.1807 2.5034 6.6581 16.9246 0.5322 -138.2527 10.8742 -171.6585 -141.5217 46.3295 -177.9536 -1.6814 -18.9506 -32.3705 -131.9968 -2.9875 -68.1119 15.1514 1.3048 -84.1128 -0.9596 -0.2069 4.0327 -2.2585 5.8718 32.2577 -49.0060 -15.1180 157.9940 8.8248 1.0164 99.7744 -0.3781 0.8211 0.2181 -41.0945 18.7325 99.9903 -3.8290 55.3678 -0.7898 -3.1849 -7.1239 -0.7108 5.9002 -15.4072 12.9993 -42.1092 2.1065 89.2451 1.9615 40.4256 9.7718 -7.3032 -11.8912 1.0532 0.0952 -6.9579 -0.0282 
0.0000 93.1000 0.0000 -66.9342 -32.9554 -165.4773 -71.0394 -0.4207 87.6987 86.2290 67.5005 1.7551 5.7376 17.8009 -0.2462 -137.1701 10.0099 -171.5975 -141.6472 45.1667 -177.2925 -1.5543 -18.0406 -32.2393 -134.1272 -3.1058 -70.1212 16.9758 1.7500 -83.1027 -0.8516 -0.5047 4.1483 -2.2985 6.0236 31.2710 -48.1061 -15.4131 158.0079 9.6475 0.8613 97.7922 -0.1579 0.8231 0.4521 -43.0892 18.8339 96.2187 -1.8007 45.2968 3.1904 -2.6843 -7.0741 -0.6451 4.9857 -14.9827 13.0466 -40.9832 2.9253 92.0800 2.9861 41.3721 12.2387 -4.5655 -12.7751 0.7251 0.8768 -4.8760 -4.0163 
0.0000 93.1000 0.0000 -66.8078 -29.7937 -167.4386 -70.8951 -0.0324 87.7514 85.3270 68.1245 2.5998 6.1930 17.9844 -1.1297 -136.1566 8.8803 -171.0325 -140.8959 44.2621 -176.5002 -0.8359 -17.8432 -32.4815 -134.2719 -5.0654 -69.3398 18.0347 2.1576 -82.1954 -1.0051 -0.0987 3.9491 -2.2002 5.8015 31.0661 -48.2408 -14.0841 158.1053 9.7524 0.9007 95.7422 0.1248 0.0299 0.6783 -45.1478 19.9225 95.0089 -1.0415 36.4413 4.2338 -2.6352 -5.8720 -1.1272 4.7989 -12.9062 12.2256 -40.1931 3.9581 95.2607 3.0963 42.2919 12.6598 -2.9789 -12.9728 0.9654 1.1171 -5.0508 -5.2377 
0.0000 93.1000 0.0000 -67.8726 -26.7065 -169.5152 -70.8762 -0.0327 87.6966 84.4014 68.2165 2.8339 6.2229 18.3471 -2.2092 -135.2094 8.0582 -171.1347 -140.3740 43.2499 -176.7035 -1.0207 -17.3023 -30.3315 -134.2206 -7.0454 -69.4463 19.2445 3.2409 -80.0906 -1.1168 -0.3692 3.7766 -2.0812 5.9986 30.2576 -48.2883 -13.3546 159.0960 9.7361 0.7488 94.6682 -0.1195 -0.0236 0.8692 -46.0528 20.8808 94.0010 -2.0206 32.4943 -0.4881 -4.7369 -3.0073 -0.4177 5.7574 -15.0000 11.9994 -40.0103 4.7935 98.8120 3.0771 43.3899 12.5939 -1.8505 -12.8694 1.0435 -0.1150 -4.0626 -4.0451 
0.0000 93.1000 0.0000 -68.8431 -23.7615 -170.1607 -70.8286 -0.2426 87.7180 83.4910 68.3539 2.7210 6.7379 18.7398 -2.2523 -134.3229 8.0140 -170.0971 -140.6626 42.4766 -177.1239 -0.9003 -17.0890 -29.2897 -133.3821 -7.9397 -71.4095 22.1342 5.0971 -77.9473 -1.9834 -0.6471 4.0595 -1.7825 6.0640 29.1784 -49.2168 -13.1915 160.0938 9.7608 0.1176 94.5101 -0.0489 -0.1494 0.9824 -45.9093 20.9291 92.9527 -2.0673 33.5044 -4.5146 -7.1923 -1.0540 0.2907 5.3321 -13.1662 8.9429 -39.0192 6.0129 102.3310 3.2746 44.1997 11.7064 -1.6450 -12.8837 1.0054 0.0413 -6.0816 -0.7747 
